# xmcd
#
# Track frame offsets: 
#        150
#        17256
#        36897
#        68415
#        90872
#        121540
#        139853
#        161060
#        177656
#        202630
#        223226
#        244192
#
# Disc length: 3518 seconds
#
# Revision: 0
# Processed by: cddbd v1.5.1PL0 Copyright (c) Steve Scherf et al.
# Submitted via: ExactAudioCopy v0.95b2
#
DISCID=940dbc0c
DTITLE=Larry Thurston - School for Fools
DYEAR=2002
DGENRE=Blues
TTITLE0=Brokenhearted and Broke
TTITLE1=You Know Who You Are
TTITLE2=Lost Dog Blues
TTITLE3=School for Fools
TTITLE4=My Woman Left Me
TTITLE5=Blues for Brooklyn
TTITLE6=Gravediggin' Man
TTITLE7=Reasons to Love
TTITLE8=Seventeen Years
TTITLE9=Warning Shot
TTITLE10=Happy Hour
TTITLE11=Blues to Go
EXTD=
EXTT0=
EXTT1=
EXTT2=
EXTT3=
EXTT4=
EXTT5=
EXTT6=
EXTT7=
EXTT8=
EXTT9=
EXTT10=
EXTT11=
PLAYORDER=
